<?xml version="1.0" encoding="UTF-8"?><svg id="Camada_1" xmlns="http://www.w3.org/2000/svg" viewBox="0 0 1000 1000"><defs><style>.cls-1{fill:#f8f4e3;stroke-width:0px;}</style></defs><path class="cls-1" d="m253.93,470.76c-6.68-.02-12.83-3.65-16.06-9.5-1.27-2.28-3.83-3.51-6.41-3.09-6.81,1.15-13.27-3.43-14.42-10.24-.11-.62-.16-1.25-.17-1.88,0-3.41-2.77-6.18-6.18-6.18-6.82,0-12.35-5.54-12.34-12.37,0-1.58.31-3.15.9-4.62,1.26-3.17-.28-6.76-3.45-8.02-.23-.09-.46-.17-.69-.23-5.37-1.42-9.11-6.27-9.12-11.82.09-6.88,5.73-12.38,12.61-12.3,1.5.02,2.98.31,4.38.85,3.17,1.26,6.76-.28,8.02-3.45.09-.23.17-.46.23-.69,1.65-6.48,8.24-10.39,14.72-8.73.42.11.83.23,1.23.39,2.08.76,4.41.35,6.09-1.09,1.7-1.44,2.52-3.67,2.14-5.87,0-3.41,2.77-6.18,6.18-6.18s6.18-2.77,6.18-6.18c.09-6.88,5.73-12.38,12.61-12.3,1.5.02,2.98.31,4.38.85,3.17,1.26,6.76-.28,8.02-3.45.09-.23.17-.46.23-.69,1.77-6.56,8.53-10.44,15.09-8.67.54.15,1.07.33,1.59.55,3.15,1.31,6.77-.19,8.07-3.34.5-1.22.61-2.56.29-3.84-.54-2.02-.83-4.09-.86-6.18-.05-13.59,10.92-24.64,24.51-24.69,7.54-.03,14.67,3.4,19.36,9.3,1.1,1.36,2.73,2.19,4.48,2.29,1.75.11,3.46-.55,4.7-1.8,3.5-3.52,8.77-4.59,13.36-2.71,3.17,1.26,6.76-.28,8.02-3.45.09-.23.17-.46.23-.69,1.73-6.57,8.46-10.49,15.03-8.75,5.43,1.43,9.2,6.37,9.16,11.98-.02,1.36-.28,2.71-.75,3.98-1.07,3.24.7,6.73,3.94,7.8,2.71.89,5.68-.19,7.18-2.61,8.64-14.71,27.57-19.62,42.28-10.98,12.38,7.28,18.12,22.13,13.83,35.84-.83,2.65.2,5.52,2.53,7.04,9.63,6.16,13.71,18.16,9.82,28.91-3.47-1.33-7.15-2.02-10.87-2.03-12.32.04-23.45,7.37-28.36,18.68-13.58-1.4-25.71,8.47-27.11,22.05-.09.84-.13,1.68-.13,2.52-12.51-.81-24.22,6.16-29.46,17.54-4.34,1.14-8.88,1.29-13.28.43-3.27-.66-6.47,1.42-7.2,4.68-2.16,9.89-11.93,16.15-21.82,13.99-.91-.2-1.81-.47-2.68-.8-3-1.15-6.39.19-7.78,3.09-3.05,6.41-9.52,10.5-16.62,10.5-3.91,0-7.71-1.26-10.84-3.6-2.06-1.53-4.84-1.63-7-.25-5.53,3.71-12.4,4.84-18.83,3.09-2.13-.57-4.39.04-5.94,1.61-3.45,3.44-8.12,5.36-12.99,5.34Z"/><path class="cls-1" d="m386.66,507.68c-1.55.93-2.61,2.5-2.91,4.28l-5.15,30.89c-2.19,13.16-1.13,26.66,3.09,39.31l8.44,25.33c4.53,13.65,17.3,22.86,31.68,22.86,5.58-.01,10.94,2.21,14.88,6.18l6.18,6.18h-150.41l7.65-3.82c11.98-5.98,24.37-11.11,37.07-15.35,13.02-4.33,21.81-16.52,21.79-30.25v-61.78c.03-13.74-8.77-25.95-21.81-30.27-19.17-6.37-36.35-17.62-49.85-32.65,1.54-.38,3.06-.87,4.54-1.46,15.95,13.64,36.25,21.13,57.24,21.13h3.71c3.41,0,6.18-2.77,6.18-6.18-.02-9.86-.73-19.7-2.15-29.46,2.33-1.47,4.45-3.26,6.31-5.3l14.83,37.07c.94,2.34,3.21,3.87,5.73,3.87.51,0,1.01-.06,1.5-.19l4.27-1.07c12.85-3.19,24.56-9.87,33.85-19.3,3.1,1.34,6.43,2.02,9.8,2.02.22,0,.44-.06.66-.07-13.89,14.76-29.73,27.55-47.09,38.02Z"/><path class="cls-1" d="m529.66,451.8c-2.16.46-3.92,2.05-4.59,4.16-2.16,6.54-9.21,10.09-15.74,7.93-.2-.07-.41-.14-.61-.22-2.32-.93-4.98-.37-6.73,1.43-7.05,7.34-18.71,7.58-26.06.53-1.57-1.51-2.87-3.29-3.82-5.25-.96-1.95-2.87-3.25-5.03-3.43h-.51c-1.99,0-3.85.95-5.02,2.56-3.67,5.12-10.65,6.58-16.06,3.36-1.94-1.14-4.34-1.14-6.28,0-5.86,3.39-13.35,1.38-16.74-4.48-.48-.83-.86-1.7-1.13-2.62-.93-3.11-4.1-4.97-7.26-4.26-1.87.45-3.78.69-5.71.72-10.04,0-18.53-5.66-18.53-12.36,0-8.03,12-14.83,24.59-11.56,3.3.85,6.67-1.14,7.52-4.45.33-1.3.24-2.67-.28-3.91-.63-1.52-.95-3.15-.95-4.79-.15-6.7,5.17-12.26,11.87-12.4,1.7-.04,3.39.28,4.95.94,3.19,1.22,6.76-.38,7.98-3.57.12-.32.22-.65.28-.98,1.77-8.64,9.35-14.85,18.16-14.88,5.86,0,11.37,2.79,14.83,7.52,2.04,2.74,5.91,3.31,8.64,1.27.02-.01.03-.02.05-.04,5.27-4.12,12.88-3.2,17.01,2.07,1.04,1.32,1.78,2.85,2.2,4.48.88,3.3,4.27,5.25,7.56,4.37.23-.06.47-.14.69-.23,6.34-2.53,13.53.56,16.05,6.9.33.84.58,1.71.72,2.6.3,1.87,1.44,3.49,3.09,4.41,8.91,4.93,12.13,16.15,7.2,25.06-2.59,4.68-7.08,8-12.32,9.11h-.04Z"/><path class="cls-1" d="m513.82,568.92l22.6-69.61h25.29l-46.6,143.39h-25.19l11.35-34.95-11.95-36.74-23.3-71.7h25.19l22.6,69.61Z"/><polygon class="cls-1" points="814.02 499.32 814.02 523.22 694.53 523.22 694.53 559.07 790.12 559.07 790.12 582.96 694.53 582.96 694.53 618.81 814.02 618.81 814.02 642.71 670.63 642.71 670.63 499.32 814.02 499.32"/><path class="cls-1" d="m622.15,499.32c11.55,0,21.41,4.08,29.57,12.25,8.17,8.17,12.25,18.02,12.25,29.57v11.95c0,11.55-4.08,21.41-12.25,29.57-8.17,8.17-18.02,12.25-29.57,12.25h-29.87v47.8h-23.9v-143.39h53.77Zm17.92,41.82c0-4.98-1.74-9.21-5.23-12.7-3.48-3.48-7.72-5.23-12.7-5.23h-29.87v47.8h29.87c4.98,0,9.21-1.74,12.7-5.23s5.23-7.72,5.23-12.7v-11.95Z"/><path class="cls-1" d="m305.78,672.87c2.87,0,5.31,1.01,7.34,3.04,2.02,2.02,3.04,4.47,3.04,7.33v2.96c0,2.86-1.01,5.31-3.04,7.33-2.03,2.03-4.47,3.04-7.34,3.04h-7.41v11.85h-5.93v-35.56h13.34Zm4.45,10.37c0-1.24-.43-2.28-1.3-3.15s-1.91-1.3-3.15-1.3h-7.41v11.85h7.41c1.23,0,2.28-.43,3.15-1.3s1.3-1.91,1.3-3.15v-2.96Z"/><path class="cls-1" d="m336.9,708.43c-4.91,0-9.1-1.74-12.57-5.21-3.47-3.47-5.21-7.66-5.21-12.57s1.74-9.1,5.21-12.57c3.47-3.47,7.66-5.21,12.57-5.21s9.1,1.74,12.57,5.21c3.47,3.47,5.21,7.66,5.21,12.57s-1.74,9.1-5.21,12.57c-3.47,3.47-7.66,5.21-12.57,5.21Zm0-5.93c3.28,0,6.07-1.16,8.38-3.47,2.31-2.31,3.47-5.11,3.47-8.38s-1.16-6.07-3.47-8.38c-2.31-2.31-5.11-3.47-8.38-3.47s-6.07,1.16-8.38,3.47c-2.31,2.31-3.47,5.11-3.47,8.38s1.16,6.07,3.47,8.38c2.31,2.31,5.11,3.47,8.38,3.47Z"/><path class="cls-1" d="m363.57,672.87c4.91,0,9.1,1.74,12.57,5.21,3.47,3.47,5.21,7.66,5.21,12.57s-1.74,9.1-5.21,12.57c-3.47,3.47-7.66,5.21-12.57,5.21h-5.93v-35.56h5.93Zm0,29.63c3.28,0,6.07-1.16,8.38-3.47,2.31-2.31,3.47-5.11,3.47-8.38s-1.16-6.07-3.47-8.38c-2.31-2.31-5.11-3.47-8.38-3.47v23.71Z"/><path class="cls-1" d="m384.32,690.65c0-4.91,1.74-9.1,5.21-12.57,3.47-3.47,7.66-5.21,12.57-5.21s9.1,1.74,12.57,5.21c3.47,3.47,5.21,7.66,5.21,12.57v17.78h-5.93v-5.93h-23.71v5.93h-5.93v-17.78Zm29.63,5.93v-5.93c0-3.28-1.16-6.07-3.47-8.38-2.31-2.31-5.11-3.47-8.38-3.47s-6.07,1.16-8.38,3.47c-2.31,2.31-3.47,5.11-3.47,8.38v5.93h23.71Z"/><path class="cls-1" d="m433.21,672.87h5.93v5.93h-5.93c-1.23,0-2.28.43-3.15,1.3-.87.86-1.3,1.91-1.3,3.15s.43,2.28,1.3,3.15c.86.86,1.91,1.3,3.15,1.3,2.86,0,5.31,1.01,7.33,3.04,2.03,2.02,3.04,4.47,3.04,7.33s-1.01,5.31-3.04,7.33c-2.02,2.02-4.47,3.04-7.33,3.04h-10.37v-5.93h10.37c1.23,0,2.28-.43,3.15-1.3s1.3-1.91,1.3-3.15-.43-2.28-1.3-3.15-1.91-1.3-3.15-1.3c-2.87,0-5.31-1.01-7.34-3.04-2.03-2.03-3.04-4.47-3.04-7.33s1.01-5.31,3.04-7.33c2.03-2.03,4.47-3.04,7.34-3.04Z"/><path class="cls-1" d="m496.93,672.87v5.93h-29.63v8.89h23.71v5.93h-23.71v8.89h29.63v5.93h-35.56v-35.56h35.56Z"/><path class="cls-1" d="m525.08,672.87h5.93v5.93h-5.93c-1.23,0-2.28.43-3.15,1.3-.87.86-1.3,1.91-1.3,3.15s.43,2.28,1.3,3.15c.86.86,1.91,1.3,3.15,1.3,2.86,0,5.31,1.01,7.33,3.04,2.03,2.02,3.04,4.47,3.04,7.33s-1.01,5.31-3.04,7.33c-2.02,2.02-4.47,3.04-7.33,3.04h-10.37v-5.93h10.37c1.23,0,2.28-.43,3.15-1.3s1.3-1.91,1.3-3.15-.43-2.28-1.3-3.15-1.91-1.3-3.15-1.3c-2.87,0-5.31-1.01-7.34-3.04-2.03-2.03-3.04-4.47-3.04-7.33s1.01-5.31,3.04-7.33c2.03-2.03,4.47-3.04,7.34-3.04Z"/><path class="cls-1" d="m538.42,690.65v-17.78h5.93v17.78c0,3.28,1.16,6.07,3.47,8.38,2.31,2.31,5.11,3.47,8.38,3.47s6.07-1.16,8.38-3.47c2.31-2.31,3.47-5.11,3.47-8.38v-17.78h5.93v17.78c0,4.91-1.74,9.1-5.21,12.57-3.47,3.47-7.66,5.21-12.57,5.21s-9.1-1.74-12.57-5.21c-3.47-3.47-5.21-7.66-5.21-12.57Z"/><path class="cls-1" d="m590.28,672.87c2.87,0,5.31,1.01,7.34,3.04,2.02,2.02,3.04,4.47,3.04,7.33v2.96c0,2.86-1.01,5.31-3.04,7.33-2.03,2.03-4.47,3.04-7.34,3.04h-7.41v11.85h-5.93v-35.56h13.34Zm4.45,10.37c0-1.24-.43-2.28-1.3-3.15s-1.91-1.3-3.15-1.3h-7.41v11.85h7.41c1.23,0,2.28-.43,3.15-1.3s1.3-1.91,1.3-3.15v-2.96Z"/><path class="cls-1" d="m616.95,672.87c2.87,0,5.31,1.01,7.34,3.04,2.02,2.02,3.04,4.47,3.04,7.33v2.96c0,2.86-1.01,5.31-3.04,7.33-1.79,1.79-3.91,2.79-6.35,2.99l9.38,11.9h-7.53l-9.36-11.85h-.89v11.85h-5.93v-35.56h13.34Zm4.45,10.37c0-1.24-.43-2.28-1.3-3.15s-1.91-1.3-3.15-1.3h-7.41v11.85h7.41c1.23,0,2.28-.43,3.15-1.3s1.3-1.91,1.3-3.15v-2.96Z"/><path class="cls-1" d="m665.85,672.87v5.93h-29.63v8.89h23.71v5.93h-23.71v8.89h29.63v5.93h-35.56v-35.56h35.56Z"/><path class="cls-1" d="m679.18,672.87h5.93v5.93h-5.93c-1.23,0-2.28.43-3.15,1.3-.87.86-1.3,1.91-1.3,3.15s.43,2.28,1.3,3.15c.86.86,1.91,1.3,3.15,1.3,2.86,0,5.31,1.01,7.33,3.04,2.03,2.02,3.04,4.47,3.04,7.33s-1.01,5.31-3.04,7.33c-2.02,2.02-4.47,3.04-7.33,3.04h-10.37v-5.93h10.37c1.23,0,2.28-.43,3.15-1.3s1.3-1.91,1.3-3.15-.43-2.28-1.3-3.15-1.91-1.3-3.15-1.3c-2.87,0-5.31-1.01-7.34-3.04-2.03-2.03-3.04-4.47-3.04-7.33s1.01-5.31,3.04-7.33c2.03-2.03,4.47-3.04,7.34-3.04Z"/><path class="cls-1" d="m702.89,672.87h5.93v5.93h-5.93c-1.23,0-2.28.43-3.15,1.3-.87.86-1.3,1.91-1.3,3.15s.43,2.28,1.3,3.15c.86.86,1.91,1.3,3.15,1.3,2.86,0,5.31,1.01,7.33,3.04,2.03,2.02,3.04,4.47,3.04,7.33s-1.01,5.31-3.04,7.33c-2.02,2.02-4.47,3.04-7.33,3.04h-10.37v-5.93h10.37c1.23,0,2.28-.43,3.15-1.3s1.3-1.91,1.3-3.15-.43-2.28-1.3-3.15-1.91-1.3-3.15-1.3c-2.87,0-5.31-1.01-7.34-3.04-2.03-2.03-3.04-4.47-3.04-7.33s1.01-5.31,3.04-7.33c2.03-2.03,4.47-3.04,7.34-3.04Z"/><path class="cls-1" d="m734.01,708.43c-4.91,0-9.1-1.74-12.57-5.21-3.47-3.47-5.21-7.66-5.21-12.57s1.74-9.1,5.21-12.57c3.47-3.47,7.66-5.21,12.57-5.21s9.1,1.74,12.57,5.21c3.47,3.47,5.21,7.66,5.21,12.57s-1.74,9.1-5.21,12.57c-3.47,3.47-7.66,5.21-12.57,5.21Zm0-5.93c3.28,0,6.07-1.16,8.38-3.47,2.31-2.31,3.47-5.11,3.47-8.38s-1.16-6.07-3.47-8.38c-2.31-2.31-5.11-3.47-8.38-3.47s-6.07,1.16-8.38,3.47c-2.31,2.31-3.47,5.11-3.47,8.38s1.16,6.07,3.47,8.38c2.31,2.31,5.11,3.47,8.38,3.47Zm-5.19-31.86v.74h-2.96v-.74c0-1.43.51-2.65,1.52-3.67s2.24-1.52,3.67-1.52,2.62.49,3.58,1.48c.96.99,1.74,1.48,2.35,1.48s1.15-.22,1.58-.65c.43-.44.64-.96.64-1.57v-.74h2.96v.74c0,1.43-.51,2.65-1.52,3.67-1.01,1.01-2.24,1.52-3.67,1.52s-2.62-.49-3.57-1.48-1.73-1.48-2.36-1.48-1.13.21-1.57.64c-.44.43-.65.96-.65,1.58Z"/><path class="cls-1" d="m790.31,672.87v5.93h-29.63v8.89h23.71v5.93h-23.71v8.89h29.63v5.93h-35.56v-35.56h35.56Z"/><path class="cls-1" d="m803.65,672.87h5.93v5.93h-5.93c-1.23,0-2.28.43-3.15,1.3-.87.86-1.3,1.91-1.3,3.15s.43,2.28,1.3,3.15c.86.86,1.91,1.3,3.15,1.3,2.86,0,5.31,1.01,7.33,3.04,2.03,2.02,3.04,4.47,3.04,7.33s-1.01,5.31-3.04,7.33c-2.02,2.02-4.47,3.04-7.33,3.04h-10.37v-5.93h10.37c1.23,0,2.28-.43,3.15-1.3s1.3-1.91,1.3-3.15-.43-2.28-1.3-3.15-1.91-1.3-3.15-1.3c-2.87,0-5.31-1.01-7.34-3.04-2.03-2.03-3.04-4.47-3.04-7.33s1.01-5.31,3.04-7.33c2.03-2.03,4.47-3.04,7.34-3.04Z"/></svg>