<svg width="147" height="98" viewBox="0 0 147 98" fill="none" xmlns="http://www.w3.org/2000/svg">
<g id="Vector">
<path d="M15.9024 42.124C14.3388 42.1193 12.8993 41.2659 12.1433 39.8906C11.846 39.3546 11.2468 39.0655 10.6429 39.1642C9.04896 39.4346 7.5369 38.3578 7.26772 36.7569C7.24198 36.6111 7.23027 36.463 7.22793 36.3149C7.22793 35.5133 6.57957 34.8621 5.78141 34.8621C4.18509 34.8621 2.89071 33.5597 2.89305 31.954C2.89305 31.5826 2.96561 31.2135 3.1037 30.8679C3.39863 30.1227 3.03817 29.2787 2.29618 28.9825C2.24234 28.9613 2.18851 28.9425 2.13467 28.9284C0.877744 28.5946 0.00234065 27.4544 0 26.1497C0.0210659 24.5322 1.34119 23.2393 2.95156 23.2581C3.30266 23.2628 3.64908 23.3309 3.97677 23.4579C4.71875 23.7541 5.55905 23.3921 5.85397 22.6468C5.87504 22.5928 5.89376 22.5387 5.9078 22.4846C6.29401 20.9612 7.8365 20.042 9.35325 20.4323C9.45155 20.4581 9.54752 20.4864 9.64115 20.524C10.128 20.7026 10.6734 20.6063 11.0666 20.2677C11.4645 19.9292 11.6564 19.4049 11.5675 18.8878C11.5675 18.0861 12.2159 17.4349 13.014 17.4349C13.8122 17.4349 14.4606 16.7837 14.4606 15.982C14.4816 14.3646 15.8017 13.0716 17.4121 13.0904C17.7632 13.0951 18.1096 13.1633 18.4373 13.2903C19.1793 13.5865 20.0196 13.2244 20.3145 12.4792C20.3356 12.4251 20.3543 12.3711 20.3684 12.317C20.7827 10.7748 22.3649 9.86267 23.9004 10.2788C24.0268 10.314 24.1509 10.3564 24.2726 10.4081C25.0099 10.716 25.8572 10.3634 26.1615 9.62288C26.2785 9.33607 26.3043 9.02105 26.2293 8.72014C26.103 8.24526 26.0351 7.75862 26.0281 7.26728C26.0164 4.07242 28.5841 1.47468 31.765 1.46292C33.5299 1.45587 35.1987 2.26223 36.2965 3.64926C36.554 3.96898 36.9355 4.16411 37.3451 4.18762C37.7547 4.21348 38.155 4.05831 38.4452 3.76445C39.2644 2.93694 40.498 2.68539 41.5723 3.12736C42.3143 3.42357 43.1546 3.06153 43.4495 2.3163C43.4706 2.26223 43.4893 2.20816 43.5034 2.15409C43.9083 0.60955 45.4836 -0.312 47.0214 0.0970557C48.2923 0.433233 49.1748 1.59458 49.1654 2.91343C49.1607 3.23315 49.0999 3.55052 48.9899 3.84909C48.7394 4.61078 49.1537 5.43123 49.9121 5.68278C50.5464 5.89201 51.2416 5.63812 51.5927 5.0692C53.615 1.61104 58.0459 0.456745 61.489 2.48792C64.3867 4.19937 65.7302 7.69044 64.7261 10.9135C64.5318 11.5365 64.7729 12.2112 65.3183 12.5685C67.5723 14.0167 68.5273 16.8378 67.6168 19.365C66.8046 19.0523 65.9432 18.8901 65.0725 18.8878C62.1888 18.8972 59.5837 20.6204 58.4344 23.2792C55.2558 22.9501 52.4166 25.2704 52.0889 28.4629C52.0678 28.6604 52.0585 28.8579 52.0585 29.0554C49.1303 28.8649 46.3894 30.5035 45.1629 33.1788C44.147 33.4468 43.0844 33.4821 42.0545 33.2799C41.2891 33.1248 40.5401 33.6137 40.3692 34.3801C39.8637 36.7052 37.5768 38.1768 35.2619 37.669C35.0489 37.622 34.8383 37.5585 34.6346 37.481C33.9324 37.2106 33.139 37.5256 32.8136 38.2074C32.0997 39.7143 30.5853 40.6758 28.9234 40.6758C28.0082 40.6758 27.1188 40.3796 26.3862 39.8295C25.904 39.4698 25.2533 39.4463 24.7477 39.7707C23.4533 40.6429 21.8453 40.9086 20.3403 40.4972C19.8417 40.3632 19.3127 40.5066 18.9499 40.8757C18.1424 41.6844 17.0493 42.1357 15.9094 42.131L15.9024 42.124Z" fill="#F8F4E3"/>
<path d="M46.9699 50.8035C46.6071 51.0221 46.3589 51.3912 46.2887 51.8097L45.0833 59.0716C44.5707 62.1653 44.8188 65.339 45.8066 68.3129L47.7821 74.2677C48.8424 77.4767 51.8314 79.6419 55.1973 79.6419C56.5033 79.6395 57.7579 80.1614 58.6801 81.0947L60.1267 82.5476H24.9209L26.7115 81.6496C29.5156 80.2437 32.4157 79.0377 35.3883 78.0409C38.4358 77.023 40.4933 74.1572 40.4886 70.9295V56.4057C40.4956 53.1755 38.4358 50.3051 35.3836 49.2895C30.8966 47.792 26.8754 45.1472 23.7155 41.6138C24.0759 41.5245 24.4317 41.4093 24.7781 41.2706C28.5115 44.4772 33.263 46.238 38.176 46.238H39.0444C39.8426 46.238 40.4909 45.5868 40.4909 44.7852C40.4863 42.4672 40.3201 40.1539 39.9877 37.8595C40.5331 37.5139 41.0293 37.0931 41.4647 36.6135L44.9358 45.3283C45.1559 45.8784 45.6872 46.238 46.277 46.238C46.3964 46.238 46.5134 46.2239 46.6281 46.1934L47.6276 45.9418C50.6353 45.1919 53.3762 43.6215 55.5507 41.4046C56.2763 41.7196 57.0557 41.8795 57.8445 41.8795C57.896 41.8795 57.9475 41.8654 57.999 41.863C54.7478 45.3329 51.0403 48.3397 46.9769 50.8011L46.9699 50.8035Z" fill="#F8F4E3"/>
<path d="M80.4412 37.6667C79.9356 37.7748 79.5237 38.1486 79.3668 38.6447C78.8613 40.1821 77.2111 41.0167 75.6826 40.5089C75.6358 40.4925 75.5867 40.476 75.5399 40.4572C74.9968 40.2386 74.3742 40.3702 73.9646 40.7934C72.3145 42.5189 69.5853 42.5754 67.8649 40.918C67.4974 40.563 67.1931 40.1445 66.9707 39.6838C66.746 39.2253 66.299 38.9197 65.7934 38.8774H65.674C65.2082 38.8774 64.7729 39.1007 64.499 39.4792C63.64 40.6829 62.0062 41.0261 60.7399 40.2691C60.2858 40.0011 59.7241 40.0011 59.27 40.2691C57.8984 41.0661 56.1452 40.5936 55.3517 39.2159C55.2394 39.0208 55.1504 38.8163 55.0873 38.6C54.8696 37.8689 54.1276 37.4316 53.3879 37.5985C52.9502 37.7043 52.5032 37.7607 52.0514 37.7678C49.7014 37.7678 47.7142 36.4372 47.7142 34.8621C47.7142 32.9743 50.523 31.3757 53.4699 32.1444C54.2423 32.3443 55.0311 31.8764 55.23 31.0983C55.3073 30.7927 55.2862 30.4706 55.1645 30.1791C55.017 29.8218 54.9421 29.4386 54.9421 29.053C54.907 27.4779 56.1522 26.1708 57.7205 26.1379C58.1184 26.1285 58.514 26.2037 58.8791 26.3589C59.6258 26.6457 60.4614 26.2696 60.7469 25.5196C60.775 25.4444 60.7984 25.3668 60.8125 25.2892C61.2268 23.2581 63.001 21.7982 65.0631 21.7911C66.4347 21.7911 67.7244 22.447 68.5343 23.559C69.0118 24.2031 69.9176 24.3371 70.5566 23.8575C70.5613 23.8552 70.5637 23.8528 70.5683 23.8481C71.8019 22.8796 73.5831 23.0958 74.5498 24.3348C74.7932 24.6451 74.9664 25.0048 75.0647 25.388C75.2707 26.1638 76.0642 26.6222 76.8343 26.4153C76.8881 26.4012 76.9443 26.3824 76.9958 26.3612C78.4797 25.7665 80.1627 26.4929 80.7525 27.9834C80.8298 28.1808 80.8883 28.3854 80.921 28.5946C80.9913 29.0342 81.2581 29.415 81.6443 29.6313C83.7298 30.7903 84.4835 33.428 83.3296 35.5227C82.7233 36.6229 81.6724 37.4034 80.4459 37.6643H80.4365L80.4412 37.6667Z" fill="#F8F4E3"/>
<path d="M76.7336 65.2003L82.0235 48.8358H87.943L77.0355 82.5452H71.1395L73.7961 74.3289L65.5453 48.8358H71.4414L76.7313 65.2003H76.7336Z" fill="#F8F4E3"/>
<path d="M147 48.8381V54.4568H119.032V62.8847H141.406V68.501H119.032V76.9289H147V82.5476H113.437V48.8381H147Z" fill="#F8F4E3"/>
<path d="M102.09 48.8381C104.793 48.8381 107.101 49.7973 109.011 51.718C110.923 53.6387 111.878 55.9543 111.878 58.6696V61.4789C111.878 64.1942 110.923 66.5121 109.011 68.4305C107.099 70.3511 104.793 71.3103 102.09 71.3103H95.0984V82.5476H89.5042V48.8381H102.09ZM106.284 58.6696C106.284 57.4988 105.877 56.5044 105.06 55.6839C104.243 54.8635 103.253 54.4544 102.088 54.4544H95.096V65.6917H102.088C103.253 65.6917 104.243 65.2826 105.06 64.4622C105.877 63.6417 106.284 62.6473 106.284 61.4765V58.6672V58.6696Z" fill="#F8F4E3"/>
<path d="M28.0387 89.6379C28.7104 89.6379 29.2816 89.8753 29.7567 90.3525C30.2295 90.8274 30.4683 91.4034 30.4683 92.0758V92.7716C30.4683 93.444 30.2319 94.02 29.7567 94.4948C29.2816 94.9721 28.7104 95.2095 28.0387 95.2095H26.3042V97.9953H24.9162V89.6355H28.0387V89.6379ZM29.0803 92.0758C29.0803 91.7842 28.9796 91.5398 28.776 91.3352C28.5723 91.1307 28.3289 91.0296 28.0387 91.0296H26.3042V93.8154H28.0387C28.3266 93.8154 28.5723 93.7143 28.776 93.5098C28.9796 93.3053 29.0803 93.0608 29.0803 92.7693V92.0734V92.0758Z" fill="#F8F4E3"/>
<path d="M35.3228 97.9977C34.1735 97.9977 33.1928 97.5886 32.3806 96.7728C31.5684 95.9571 31.1611 94.9721 31.1611 93.8178C31.1611 92.6635 31.5684 91.6785 32.3806 90.8627C33.1928 90.0469 34.1735 89.6379 35.3228 89.6379C36.472 89.6379 37.4528 90.0469 38.265 90.8627C39.0772 91.6785 39.4845 92.6635 39.4845 93.8178C39.4845 94.9721 39.0772 95.9571 38.265 96.7728C37.4528 97.5886 36.472 97.9977 35.3228 97.9977ZM35.3228 96.6036C36.0905 96.6036 36.7436 96.3309 37.2842 95.7878C37.8249 95.2448 38.0965 94.5865 38.0965 93.8178C38.0965 93.049 37.8249 92.3908 37.2842 91.8477C36.7436 91.3047 36.0882 91.032 35.3228 91.032C34.5574 91.032 33.902 91.3047 33.3613 91.8477C32.8206 92.3908 32.5491 93.049 32.5491 93.8178C32.5491 94.5865 32.8206 95.2448 33.3613 95.7878C33.902 96.3309 34.5574 96.6036 35.3228 96.6036Z" fill="#F8F4E3"/>
<path d="M41.5653 89.6379C42.7146 89.6379 43.6953 90.0469 44.5075 90.8627C45.3197 91.6785 45.727 92.6635 45.727 93.8178C45.727 94.9721 45.3197 95.9571 44.5075 96.7728C43.6953 97.5886 42.7146 97.9977 41.5653 97.9977H40.1773V89.6379H41.5653ZM41.5653 96.6036C42.333 96.6036 42.9861 96.3309 43.5268 95.7878C44.0675 95.2448 44.339 94.5865 44.339 93.8178C44.339 93.049 44.0675 92.3908 43.5268 91.8477C42.9861 91.3047 42.3307 91.032 41.5653 91.032V96.6059V96.6036Z" fill="#F8F4E3"/>
<path d="M46.4222 93.8178C46.4222 92.6635 46.8294 91.6785 47.6416 90.8627C48.4538 90.0469 49.4346 89.6379 50.5838 89.6379C51.7331 89.6379 52.7138 90.0469 53.526 90.8627C54.3382 91.6785 54.7455 92.6635 54.7455 93.8178V97.9977H53.3575V96.6036H47.8078V97.9977H46.4198V93.8178H46.4222ZM53.3575 95.2118V93.8178C53.3575 93.0467 53.086 92.3908 52.5453 91.8477C52.0046 91.3047 51.3492 91.032 50.5838 91.032C49.8184 91.032 49.1631 91.3047 48.6224 91.8477C48.0817 92.3908 47.8102 93.049 47.8102 93.8178V95.2118H53.3598H53.3575Z" fill="#F8F4E3"/>
<path d="M57.8656 89.6379H59.2536V91.032H57.8656C57.5777 91.032 57.3319 91.133 57.1283 91.3376C56.9247 91.5397 56.824 91.7866 56.824 92.0781C56.824 92.3696 56.9247 92.6141 57.1283 92.8186C57.3296 93.0208 57.5754 93.1243 57.8656 93.1243C58.535 93.1243 59.1085 93.3617 59.5813 93.8389C60.0564 94.3138 60.2928 94.8898 60.2928 95.5621C60.2928 96.2345 60.0564 96.8105 59.5813 97.2853C59.1085 97.7602 58.535 98 57.8656 98H55.4383V96.6059H57.8656C58.1535 96.6059 58.3993 96.5048 58.6029 96.3003C58.8065 96.0958 58.9072 95.8513 58.9072 95.5598C58.9072 95.2683 58.8065 95.0238 58.6029 94.8192C58.3993 94.6147 58.1558 94.5136 57.8656 94.5136C57.1938 94.5136 56.6227 94.2762 56.1476 93.799C55.6724 93.3217 55.436 92.7481 55.436 92.0757C55.436 91.4034 55.6724 90.8274 56.1476 90.3525C56.6227 89.8753 57.1938 89.6379 57.8656 89.6379Z" fill="#F8F4E3"/>
<path d="M72.7802 89.6379V91.032H65.8449V93.1219H71.3946V94.516H65.8449V96.6059H72.7802V98H64.4569V89.6402H72.7802V89.6379Z" fill="#F8F4E3"/>
<path d="M79.3692 89.6379H80.7572V91.032H79.3692C79.0813 91.032 78.8355 91.133 78.6319 91.3376C78.4282 91.5397 78.3276 91.7866 78.3276 92.0781C78.3276 92.3696 78.4282 92.6141 78.6319 92.8186C78.8332 93.0208 79.0789 93.1243 79.3692 93.1243C80.0386 93.1243 80.6121 93.3617 81.0849 93.8389C81.56 94.3138 81.7964 94.8898 81.7964 95.5621C81.7964 96.2345 81.56 96.8105 81.0849 97.2853C80.6121 97.7602 80.0386 98 79.3692 98H76.9419V96.6059H79.3692C79.6571 96.6059 79.9028 96.5048 80.1065 96.3003C80.3101 96.0958 80.4108 95.8513 80.4108 95.5598C80.4108 95.2683 80.3101 95.0238 80.1065 94.8192C79.9028 94.6147 79.6594 94.5136 79.3692 94.5136C78.6974 94.5136 78.1263 94.2762 77.6511 93.799C77.176 93.3217 76.9396 92.7481 76.9396 92.0757C76.9396 91.4034 77.176 90.8274 77.6511 90.3525C78.1263 89.8753 78.6974 89.6379 79.3692 89.6379Z" fill="#F8F4E3"/>
<path d="M82.4916 93.8178V89.6379H83.8796V93.8178C83.8796 94.5889 84.1511 95.2448 84.6918 95.7878C85.2325 96.3309 85.8879 96.6036 86.6533 96.6036C87.4187 96.6036 88.0741 96.3309 88.6147 95.7878C89.1554 95.2448 89.4269 94.5865 89.4269 93.8178V89.6379H90.8149V93.8178C90.8149 94.9721 90.4077 95.9571 89.5955 96.7728C88.7833 97.5886 87.8025 97.9977 86.6533 97.9977C85.504 97.9977 84.5233 97.5886 83.7111 96.7728C82.8989 95.9571 82.4916 94.9721 82.4916 93.8178Z" fill="#F8F4E3"/>
<path d="M94.6302 89.6379C95.302 89.6379 95.8731 89.8753 96.3483 90.3525C96.8211 90.8274 97.0598 91.4034 97.0598 92.0758V92.7716C97.0598 93.444 96.8234 94.02 96.3483 94.4948C95.8731 94.9721 95.302 95.2095 94.6302 95.2095H92.8958V97.9953H91.5078V89.6355H94.6302V89.6379ZM95.6718 92.0758C95.6718 91.7842 95.5712 91.5398 95.3675 91.3352C95.1639 91.1307 94.9205 91.0296 94.6302 91.0296H92.8958V93.8154H94.6302C94.9181 93.8154 95.1639 93.7143 95.3675 93.5098C95.5712 93.3053 95.6718 93.0608 95.6718 92.7693V92.0734V92.0758Z" fill="#F8F4E3"/>
<path d="M100.873 89.6379C101.545 89.6379 102.116 89.8753 102.591 90.3525C103.064 90.8274 103.302 91.4034 103.302 92.0758V92.7716C103.302 93.444 103.066 94.02 102.591 94.4948C102.172 94.9156 101.676 95.1507 101.104 95.1977L103.3 97.9953H101.537L99.3466 95.2095H99.1383V97.9953H97.7503V89.6355H100.873V89.6379ZM101.914 92.0758C101.914 91.7842 101.814 91.5398 101.61 91.3352C101.406 91.1307 101.163 91.0296 100.873 91.0296H99.1383V93.8154H100.873C101.161 93.8154 101.406 93.7143 101.61 93.5098C101.814 93.3053 101.914 93.0608 101.914 92.7693V92.0734V92.0758Z" fill="#F8F4E3"/>
<path d="M112.319 89.6379V91.032H105.383V93.1219H110.933V94.516H105.383V96.6059H112.319V98H103.995V89.6402H112.319V89.6379Z" fill="#F8F4E3"/>
<path d="M115.439 89.6379H116.827V91.032H115.439C115.151 91.032 114.905 91.133 114.701 91.3376C114.498 91.5397 114.397 91.7866 114.397 92.0781C114.397 92.3696 114.498 92.6141 114.701 92.8186C114.903 93.0208 115.148 93.1243 115.439 93.1243C116.108 93.1243 116.681 93.3617 117.154 93.8389C117.629 94.3138 117.866 94.8898 117.866 95.5621C117.866 96.2345 117.629 96.8105 117.154 97.2853C116.681 97.7602 116.108 98 115.439 98H113.011V96.6059H115.439C115.727 96.6059 115.972 96.5048 116.176 96.3003C116.38 96.0958 116.48 95.8513 116.48 95.5598C116.48 95.2683 116.38 95.0238 116.176 94.8192C115.972 94.6147 115.729 94.5136 115.439 94.5136C114.767 94.5136 114.196 94.2762 113.721 93.799C113.245 93.3217 113.009 92.7481 113.009 92.0757C113.009 91.4034 113.245 90.8274 113.721 90.3525C114.196 89.8753 114.767 89.6379 115.439 89.6379Z" fill="#F8F4E3"/>
<path d="M120.988 89.6379H122.376V91.032H120.988C120.7 91.032 120.455 91.133 120.251 91.3376C120.047 91.5397 119.947 91.7866 119.947 92.0781C119.947 92.3696 120.047 92.6141 120.251 92.8186C120.452 93.0208 120.698 93.1243 120.988 93.1243C121.658 93.1243 122.231 93.3617 122.704 93.8389C123.179 94.3138 123.416 94.8898 123.416 95.5621C123.416 96.2345 123.179 96.8105 122.704 97.2853C122.231 97.7602 121.658 98 120.988 98H118.561V96.6059H120.988C121.276 96.6059 121.522 96.5048 121.726 96.3003C121.929 96.0958 122.03 95.8513 122.03 95.5598C122.03 95.2683 121.929 95.0238 121.726 94.8192C121.522 94.6147 121.279 94.5136 120.988 94.5136C120.317 94.5136 119.745 94.2762 119.27 93.799C118.795 93.3217 118.559 92.7481 118.559 92.0757C118.559 91.4034 118.795 90.8274 119.27 90.3525C119.745 89.8753 120.317 89.6379 120.988 89.6379Z" fill="#F8F4E3"/>
<path d="M128.272 97.9976C127.123 97.9976 126.142 97.5886 125.33 96.7728C124.518 95.9571 124.111 94.9721 124.111 93.8178C124.111 92.6635 124.518 91.6784 125.33 90.8627C126.142 90.0469 127.123 89.6379 128.272 89.6379C129.422 89.6379 130.402 90.0469 131.215 90.8627C132.027 91.6784 132.434 92.6635 132.434 93.8178C132.434 94.9721 132.027 95.9571 131.215 96.7728C130.402 97.5886 129.422 97.9976 128.272 97.9976ZM128.272 96.6036C129.04 96.6036 129.693 96.3309 130.234 95.7878C130.775 95.2448 131.046 94.5865 131.046 93.8178C131.046 93.049 130.775 92.3908 130.234 91.8477C129.693 91.3046 129.038 91.0319 128.272 91.0319C127.507 91.0319 126.852 91.3046 126.311 91.8477C125.77 92.3908 125.499 93.049 125.499 93.8178C125.499 94.5865 125.77 95.2448 126.311 95.7878C126.852 96.3309 127.507 96.6036 128.272 96.6036ZM127.058 89.1136V89.2876H126.365V89.1136C126.365 88.7774 126.484 88.4906 126.721 88.2508C126.957 88.011 127.245 87.8935 127.58 87.8935C127.914 87.8935 128.193 88.0087 128.418 88.2414C128.642 88.4742 128.825 88.5894 128.968 88.5894C129.11 88.5894 129.237 88.5377 129.337 88.4366C129.438 88.3331 129.487 88.2109 129.487 88.0675V87.8935H130.18V88.0675C130.18 88.4036 130.061 88.6905 129.824 88.9302C129.588 89.1677 129.3 89.2876 128.965 89.2876C128.631 89.2876 128.352 89.1724 128.13 88.9397C127.907 88.7069 127.725 88.5917 127.577 88.5917C127.43 88.5917 127.313 88.6411 127.21 88.7422C127.107 88.8433 127.058 88.9679 127.058 89.1136Z" fill="#F8F4E3"/>
<path d="M141.45 89.6379V91.032H134.515V93.1219H140.065V94.516H134.515V96.6059H141.45V98H133.127V89.6402H141.45V89.6379Z" fill="#F8F4E3"/>
<path d="M144.573 89.6379H145.961V91.032H144.573C144.285 91.032 144.039 91.133 143.835 91.3376C143.632 91.5397 143.531 91.7866 143.531 92.0781C143.531 92.3696 143.632 92.6141 143.835 92.8186C144.037 93.0208 144.283 93.1243 144.573 93.1243C145.242 93.1243 145.816 93.3617 146.288 93.8389C146.764 94.3138 147 94.8898 147 95.5621C147 96.2345 146.764 96.8105 146.288 97.2853C145.816 97.7602 145.242 98 144.573 98H142.145V96.6059H144.573C144.861 96.6059 145.106 96.5048 145.31 96.3003C145.514 96.0958 145.614 95.8513 145.614 95.5598C145.614 95.2683 145.514 95.0238 145.31 94.8192C145.106 94.6147 144.863 94.5136 144.573 94.5136C143.901 94.5136 143.33 94.2762 142.855 93.799C142.38 93.3217 142.143 92.7481 142.143 92.0757C142.143 91.4034 142.38 90.8274 142.855 90.3525C143.33 89.8753 143.901 89.6379 144.573 89.6379Z" fill="#F8F4E3"/>
</g>
</svg>
