<?xml version="1.0" encoding="UTF-8"?><svg id="Camada_1" xmlns="http://www.w3.org/2000/svg" viewBox="0 0 1000 1000"><defs><style>.cls-1{fill:#402e19;stroke-width:0px;}</style></defs><path class="cls-1" d="m334.91,505.38c-9.92-.02-19.04-5.42-23.84-14.09-1.88-3.38-5.69-5.22-9.51-4.59-10.11,1.71-19.7-5.1-21.41-15.21-.16-.92-.24-1.86-.26-2.79,0-5.06-4.11-9.17-9.17-9.17-10.13-.01-18.33-8.23-18.32-18.36,0-2.35.46-4.68,1.34-6.86,1.87-4.71-.42-10.04-5.13-11.91-.33-.13-.68-.25-1.03-.34-7.97-2.11-13.52-9.31-13.54-17.55.13-10.21,8.51-18.38,18.72-18.25,2.22.03,4.43.46,6.5,1.27,4.71,1.87,10.04-.42,11.91-5.13.13-.33.25-.68.34-1.03,2.45-9.61,12.24-15.42,21.85-12.96.62.16,1.23.35,1.83.57,3.08,1.13,6.54.51,9.04-1.61,2.53-2.14,3.73-5.45,3.17-8.71,0-5.06,4.11-9.17,9.17-9.17s9.17-4.11,9.17-9.17c.13-10.21,8.51-18.38,18.72-18.25,2.22.03,4.43.46,6.5,1.27,4.71,1.87,10.04-.42,11.91-5.13.13-.33.25-.68.34-1.03,2.63-9.74,12.66-15.5,22.4-12.86.8.22,1.59.49,2.36.81,4.68,1.94,10.04-.28,11.98-4.96.75-1.81.9-3.81.43-5.71-.81-2.99-1.24-6.07-1.28-9.17-.08-20.17,16.21-36.58,36.38-36.66,11.19-.04,21.78,5.04,28.73,13.8,1.63,2.02,4.05,3.26,6.65,3.39,2.6.16,5.14-.81,6.97-2.67,5.19-5.23,13.02-6.81,19.84-4.03,4.71,1.87,10.04-.42,11.91-5.13.13-.33.25-.68.34-1.03,2.57-9.75,12.56-15.57,22.31-12.99,8.06,2.13,13.66,9.45,13.6,17.79-.03,2.02-.41,4.02-1.12,5.91-1.58,4.81,1.04,9.99,5.85,11.57,4.02,1.32,8.43-.28,10.66-3.88,12.83-21.83,40.93-29.13,62.76-16.3,18.38,10.8,26.89,32.86,20.53,53.21-1.24,3.93.3,8.2,3.75,10.44,14.29,9.14,20.34,26.96,14.57,42.92-5.15-1.97-10.62-2.99-16.13-3.01-18.29.05-34.82,10.94-42.09,27.72-20.15-2.08-38.17,12.58-40.25,32.73-.13,1.24-.19,2.49-.19,3.74-18.56-1.21-35.95,9.15-43.73,26.04-6.44,1.69-13.18,1.91-19.72.63-4.86-.98-9.6,2.11-10.68,6.94-3.21,14.68-17.72,23.97-32.4,20.76-1.35-.3-2.68-.7-3.97-1.19-4.46-1.71-9.48.28-11.55,4.59-4.52,9.52-14.13,15.59-24.67,15.59-5.8,0-11.44-1.87-16.08-5.35-3.05-2.27-7.18-2.42-10.39-.38-8.21,5.51-18.41,7.18-27.95,4.59-3.16-.85-6.52.06-8.82,2.38-5.11,5.11-12.06,7.96-19.28,7.92Z"/><path class="cls-1" d="m531.93,560.18c-2.3,1.38-3.88,3.71-4.32,6.35l-7.65,45.85c-3.25,19.54-1.68,39.57,4.59,58.36l12.54,37.6c6.72,20.26,25.67,33.94,47.02,33.93,8.29-.02,16.24,3.29,22.08,9.17l9.17,9.17h-223.28l11.35-5.68c17.78-8.88,36.17-16.49,55.02-22.79,19.33-6.43,32.37-24.52,32.34-44.9v-91.7c.04-20.4-13.01-38.51-32.37-44.93-28.46-9.46-53.96-26.16-74-48.46,2.29-.57,4.54-1.29,6.74-2.16,23.68,20.25,53.81,31.37,84.96,31.37h5.5c5.06,0,9.17-4.11,9.17-9.17-.02-14.63-1.09-29.24-3.19-43.72,3.46-2.19,6.61-4.83,9.36-7.87l22.01,55.02c1.4,3.47,4.76,5.74,8.5,5.74.75,0,1.5-.09,2.23-.28l6.34-1.59c19.07-4.74,36.46-14.65,50.24-28.65,4.6,1.98,9.55,3,14.55,3,.33,0,.65-.09.98-.1-20.62,21.9-44.14,40.89-69.9,56.43Z"/><path class="cls-1" d="m744.19,477.23c-3.21.69-5.81,3.04-6.81,6.17-3.2,9.71-13.66,14.98-23.37,11.78-.3-.1-.6-.21-.9-.32-3.45-1.38-7.39-.55-9.99,2.12-10.46,10.9-27.78,11.25-38.68.79-2.34-2.24-4.26-4.89-5.67-7.8-1.42-2.89-4.26-4.82-7.46-5.09h-.76c-2.95,0-5.72,1.41-7.45,3.81-5.45,7.6-15.81,9.77-23.84,4.99-2.87-1.7-6.44-1.7-9.32,0-8.7,5.03-19.82,2.05-24.84-6.64-.71-1.22-1.27-2.53-1.68-3.88-1.38-4.61-6.09-7.38-10.78-6.33-2.78.66-5.62,1.02-8.47,1.06-14.91,0-27.51-8.4-27.51-18.34,0-11.92,17.81-22.01,36.51-17.16,4.91,1.26,9.9-1.69,11.16-6.6.5-1.93.35-3.97-.42-5.81-.93-2.26-1.41-4.67-1.4-7.12-.22-9.95,7.67-18.19,17.62-18.41,2.52-.06,5.03.42,7.35,1.39,4.73,1.81,10.03-.56,11.84-5.29.18-.47.32-.96.42-1.46,2.62-12.82,13.88-22.04,26.96-22.08,8.7,0,16.88,4.15,22.01,11.17,3.02,4.06,8.77,4.91,12.83,1.89.02-.02.05-.04.07-.05,7.82-6.12,19.12-4.74,25.24,3.08,1.54,1.96,2.65,4.23,3.27,6.64,1.31,4.89,6.33,7.8,11.23,6.49.35-.09.69-.21,1.03-.34,9.41-3.75,20.08.83,23.83,10.24.5,1.24.85,2.54,1.07,3.86.45,2.77,2.14,5.18,4.59,6.55,13.22,7.32,18,23.97,10.68,37.2-3.85,6.94-10.52,11.88-18.28,13.52h-.06Z"/></svg>